<svg xmlns="http://www.w3.org/2000/svg" viewBox="0 0 512 512" fill="none">
  <defs>
    <linearGradient id="mm-fire" x1="0" y1="0" x2="1" y2="1">
      <stop offset="0%" stop-color="#ef4444"/>
      <stop offset="100%" stop-color="#f59e0b"/>
    </linearGradient>
    <linearGradient id="mm-shadow" x1="0" y1="0" x2="0" y2="1">
      <stop offset="0%" stop-color="#0f172a"/>
      <stop offset="100%" stop-color="#111827"/>
    </linearGradient>
    <filter id="mm-glow" x="-50%" y="-50%" width="200%" height="200%">
      <feDropShadow dx="0" dy="0" stdDeviation="6" flood-color="#ef4444" flood-opacity="0.35"/>
      <feDropShadow dx="0" dy="0" stdDeviation="10" flood-color="#f59e0b" flood-opacity="0.25"/>
    </filter>
  </defs>

  <!-- dark shield background -->
  <rect x="32" y="32" width="448" height="448" rx="40" fill="url(#mm-shadow)"/>

  <!-- outer ring with spikes -->
  <circle cx="256" cy="256" r="188" stroke="url(#mm-fire)" stroke-width="20" filter="url(#mm-glow)"/>
  <path d="M256 52 L236 96 L276 96 Z" fill="url(#mm-fire)"/>
  <path d="M256 460 L236 416 L276 416 Z" fill="url(#mm-fire)"/>
  <path d="M52 256 L96 236 L96 276 Z" fill="url(#mm-fire)"/>
  <path d="M460 256 L416 236 L416 276 Z" fill="url(#mm-fire)"/>

  <!-- jagged crown -->
  <path d="M176 148 L208 110 L256 150 L304 110 L336 148 L330 172 L182 172 Z"
        fill="var(--mm-fill, #f59e0b)" filter="url(#mm-glow)"/>

  <!-- fanged monogram M -->
  <path d="M128 366 V204 L256 324 L384 204 V366"
        stroke="var(--mm-stroke, #fafafa)"
        stroke-width="36" stroke-linecap="round" stroke-linejoin="round" filter="url(#mm-glow)"/>

  <!-- fangs on the inner V -->
  <path d="M246 324 L256 352 L266 324 Z" fill="var(--mm-stroke, #fafafa)"/>
  <path d="M226 308 L236 336 L246 310 Z" fill="var(--mm-stroke, #fafafa)"/>
  <path d="M266 308 L276 336 L286 310 Z" fill="var(--mm-stroke, #fafafa)"/>

  <!-- claw scratches -->
  <path d="M104 408 C156 372, 196 360, 232 348" stroke="rgba(239,68,68,0.6)" stroke-width="10" stroke-linecap="round"/>
  <path d="M120 430 C170 394, 212 382, 248 370" stroke="rgba(245,158,11,0.55)" stroke-width="8" stroke-linecap="round"/>
  <path d="M92 382 C144 350, 188 338, 224 326" stroke="rgba(239,68,68,0.35)" stroke-width="7" stroke-linecap="round"/>
</svg>
